TITLE ""
FILE "P1Q_t_0649-0658.mp3" MP3
  TRACK 01 AUDIO
    TITLE "P1Q_t_0649-0658_01"
    INDEX 01 00:00:00
  TRACK 02 AUDIO
    TITLE "P1Q_t_0649-0658_02"
    INDEX 01 00:01:16
  TRACK 03 AUDIO
    TITLE "P1Q_t_0649-0658_03"
    INDEX 01 00:01:37
  TRACK 04 AUDIO
    TITLE "P1Q_t_0649-0658_04"
    INDEX 01 00:03:22
  TRACK 05 AUDIO
    TITLE "P1Q_t_0649-0658_05"
    INDEX 01 00:03:42
  TRACK 06 AUDIO
    TITLE "P1Q_t_0649-0658_06"
    INDEX 01 00:08:25
  TRACK 07 AUDIO
    TITLE "P1Q_t_0649-0658_07"
    INDEX 01 00:08:73
  TRACK 08 AUDIO
    TITLE "P1Q_t_0649-0658_08"
    INDEX 01 00:10:07
  TRACK 09 AUDIO
    TITLE "P1Q_t_0649-0658_09"
    INDEX 01 00:10:30
  TRACK 10 AUDIO
    TITLE "P1Q_t_0649-0658_10"
    INDEX 01 00:12:19
  TRACK 11 AUDIO
    TITLE "P1Q_t_0649-0658_11"
    INDEX 01 00:12:41
  TRACK 12 AUDIO
    TITLE "P1Q_t_0649-0658_12"
    INDEX 01 00:17:36
  TRACK 13 AUDIO
    TITLE "P1Q_t_0649-0658_13"
    INDEX 01 00:18:08
  TRACK 14 AUDIO
    TITLE "P1Q_t_0649-0658_14"
    INDEX 01 00:19:25
  TRACK 15 AUDIO
    TITLE "P1Q_t_0649-0658_15"
    INDEX 01 00:19:47
  TRACK 16 AUDIO
    TITLE "P1Q_t_0649-0658_16"
    INDEX 01 00:21:61
  TRACK 17 AUDIO
    TITLE "P1Q_t_0649-0658_17"
    INDEX 01 00:22:08
  TRACK 18 AUDIO
    TITLE "P1Q_t_0649-0658_18"
    INDEX 01 00:26:68
  TRACK 19 AUDIO
    TITLE "P1Q_t_0649-0658_19"
    INDEX 01 00:27:40
  TRACK 20 AUDIO
    TITLE "P1Q_t_0649-0658_20"
    INDEX 01 00:28:61
  TRACK 21 AUDIO
    TITLE "P1Q_t_0649-0658_21"
    INDEX 01 00:29:06
  TRACK 22 AUDIO
    TITLE "P1Q_t_0649-0658_22"
    INDEX 01 00:31:60
  TRACK 23 AUDIO
    TITLE "P1Q_t_0649-0658_23"
    INDEX 01 00:32:06
  TRACK 24 AUDIO
    TITLE "P1Q_t_0649-0658_24"
    INDEX 01 00:37:13
  TRACK 25 AUDIO
    TITLE "P1Q_t_0649-0658_25"
    INDEX 01 00:37:58
  TRACK 26 AUDIO
    TITLE "P1Q_t_0649-0658_26"
    INDEX 01 00:38:58
  TRACK 27 AUDIO
    TITLE "P1Q_t_0649-0658_27"
    INDEX 01 00:39:04
  TRACK 28 AUDIO
    TITLE "P1Q_t_0649-0658_28"
    INDEX 01 00:41:15
  TRACK 29 AUDIO
    TITLE "P1Q_t_0649-0658_29"
    INDEX 01 00:41:35
  TRACK 30 AUDIO
    TITLE "P1Q_t_0649-0658_30"
    INDEX 01 00:45:34
  TRACK 31 AUDIO
    TITLE "P1Q_t_0649-0658_31"
    INDEX 01 00:46:06
  TRACK 32 AUDIO
    TITLE "P1Q_t_0649-0658_32"
    INDEX 01 00:47:35
  TRACK 33 AUDIO
    TITLE "P1Q_t_0649-0658_33"
    INDEX 01 00:47:55
  TRACK 34 AUDIO
    TITLE "P1Q_t_0649-0658_34"
    INDEX 01 00:51:63
  TRACK 35 AUDIO
    TITLE "P1Q_t_0649-0658_35"
    INDEX 01 00:52:07
  TRACK 36 AUDIO
    TITLE "P1Q_t_0649-0658_36"
    INDEX 01 00:56:09
  TRACK 37 AUDIO
    TITLE "P1Q_t_0649-0658_37"
    INDEX 01 00:56:54
  TRACK 38 AUDIO
    TITLE "P1Q_t_0649-0658_38"
    INDEX 01 00:57:53
  TRACK 39 AUDIO
    TITLE "P1Q_t_0649-0658_39"
    INDEX 01 00:58:00
  TRACK 40 AUDIO
    TITLE "P1Q_t_0649-0658_40"
    INDEX 01 00:59:74
  TRACK 41 AUDIO
    TITLE "P1Q_t_0649-0658_41"
    INDEX 01 01:00:18
  TRACK 42 AUDIO
    TITLE "P1Q_t_0649-0658_42"
    INDEX 01 01:05:08
  TRACK 43 AUDIO
    TITLE "P1Q_t_0649-0658_43"
    INDEX 01 01:05:53
  TRACK 44 AUDIO
    TITLE "P1Q_t_0649-0658_44"
    INDEX 01 01:06:58
  TRACK 45 AUDIO
    TITLE "P1Q_t_0649-0658_45"
    INDEX 01 01:07:07
  TRACK 46 AUDIO
    TITLE "P1Q_t_0649-0658_46"
    INDEX 01 01:09:70
  TRACK 47 AUDIO
    TITLE "P1Q_t_0649-0658_47"
    INDEX 01 01:10:17
  TRACK 48 AUDIO
    TITLE "P1Q_t_0649-0658_48"
    INDEX 01 01:14:50
  TRACK 49 AUDIO
    TITLE "P1Q_t_0649-0658_49"
    INDEX 01 01:15:20
  TRACK 50 AUDIO
    TITLE "P1Q_t_0649-0658_50"
    INDEX 01 01:16:41
  TRACK 51 AUDIO
    TITLE "P1Q_t_0649-0658_51"
    INDEX 01 01:16:62
  TRACK 52 AUDIO
    TITLE "P1Q_t_0649-0658_52"
    INDEX 01 01:20:70
  TRACK 53 AUDIO
    TITLE "P1Q_t_0649-0658_53"
    INDEX 01 01:21:15
  TRACK 54 AUDIO
    TITLE "P1Q_t_0649-0658_54"
    INDEX 01 01:25:36
  TRACK 55 AUDIO
    TITLE "P1Q_t_0649-0658_55"
    INDEX 01 01:26:06
  TRACK 56 AUDIO
    TITLE "P1Q_t_0649-0658_56"
    INDEX 01 01:27:25
  TRACK 57 AUDIO
    TITLE "P1Q_t_0649-0658_57"
    INDEX 01 01:27:45
  TRACK 58 AUDIO
    TITLE "P1Q_t_0649-0658_58"
    INDEX 01 01:29:69
  TRACK 59 AUDIO
    TITLE "P1Q_t_0649-0658_59"
    INDEX 01 01:30:14
  TRACK 60 AUDIO
    TITLE "P1Q_t_0649-0658_60"
    INDEX 01 01:35:40
